<?xml version="1.0" encoding="UTF-8" standalone="no"?>
<!-- Created with Inkscape (http://www.inkscape.org/) -->

<svg
   width="210mm"
   height="297mm"
   viewBox="0 0 210 297"
   version="1.1"
   id="svg1"
   xml:space="preserve"
   inkscape:version="1.4.2 (ebf0e940d0, 2025-05-08)"
   sodipodi:docname="lcm.svg"
   inkscape:export-filename="lcm.png"
   inkscape:export-xdpi="96"
   inkscape:export-ydpi="96"
   xmlns:inkscape="http://www.inkscape.org/namespaces/inkscape"
   xmlns:sodipodi="http://sodipodi.sourceforge.net/DTD/sodipodi-0.dtd"
   xmlns:xlink="http://www.w3.org/1999/xlink"
   xmlns="http://www.w3.org/2000/svg"
   xmlns:svg="http://www.w3.org/2000/svg"><sodipodi:namedview
     id="namedview1"
     pagecolor="#ffffff"
     bordercolor="#000000"
     borderopacity="0.25"
     inkscape:showpageshadow="2"
     inkscape:pageopacity="0.0"
     inkscape:pagecheckerboard="0"
     inkscape:deskcolor="#d1d1d1"
     inkscape:document-units="mm"
     inkscape:zoom="0.66413089"
     inkscape:cx="-102.38945"
     inkscape:cy="316.20273"
     inkscape:window-width="2648"
     inkscape:window-height="1457"
     inkscape:window-x="0"
     inkscape:window-y="0"
     inkscape:window-maximized="0"
     inkscape:current-layer="layer1" /><defs
     id="defs1"><clipPath
       clipPathUnits="userSpaceOnUse"
       id="clipPath26"><use
         x="0"
         y="0"
         xlink:href="#g25"
         id="use26" /></clipPath></defs><g
     inkscape:label="Layer 1"
     inkscape:groupmode="layer"
     id="layer1"><path
       id="path1"
       style="fill:#000000;stroke-width:0.288247"
       d="M 76.23669 27.394194 C 73.310768 27.390106 70.398763 28.545065 68.558606 30.766597 C 67.504276 32.03944 66.664094 34.275432 66.747864 35.585425 L 66.77887 36.07325 L 67.541614 36.345068 C 69.034671 36.877103 71.413869 37.357567 73.439445 37.53621 C 74.841119 37.659828 77.48602 37.664805 78.778137 37.546545 C 81.060254 37.337676 82.580912 37.046883 84.447042 36.462374 L 85.641801 36.088236 L 85.641801 35.410758 C 85.641801 33.386572 84.407976 31.015491 82.591341 29.549618 C 80.796626 28.101432 78.512407 27.397373 76.23669 27.394194 z M 80.421448 30.277222 L 80.553739 30.914392 C 80.743904 31.829286 81.209464 32.561336 81.777954 32.840373 C 82.143371 33.01973 82.186839 33.065999 81.993445 33.069299 C 81.606525 33.075996 80.932726 33.840772 80.73564 34.497119 C 80.643271 34.804722 80.524057 35.216561 80.471057 35.412309 L 80.374939 35.767843 L 80.364604 35.390605 C 80.339302 34.470454 79.612353 33.251688 79.010164 33.119425 L 78.68512 33.048112 L 79.113 32.829521 C 79.747403 32.505872 80.186644 31.772649 80.343416 30.774349 L 80.421448 30.277222 z M 64.641016 36.65306 C 64.503904 36.655291 64.349831 36.667325 64.150606 36.684583 C 62.847576 36.797464 61.861385 36.994851 61.652051 37.184294 C 61.377467 37.432791 59.250249 43.478278 59.369503 43.671236 C 59.480192 43.850335 60.909956 44.620839 61.774524 44.967281 C 63.42146 45.627228 65.585741 46.187266 67.846505 46.538761 C 69.730033 46.831605 70.013037 46.897828 71.151729 47.310807 C 71.732143 47.521312 71.991814 47.625385 72.003874 47.66169 C 72.003938 47.66197 72.00384 47.662452 72.003874 47.662724 L 72.00439 47.663241 L 72.00439 47.663757 L 72.00439 47.664274 L 72.003874 47.664791 L 72.003874 47.665308 L 72.003874 47.665824 L 72.003357 47.666341 L 72.003357 47.666858 L 72.00284 47.667375 L 72.002323 47.667891 C 71.989766 47.680023 71.923943 47.678423 71.812671 47.666341 C 71.560993 47.639012 70.897107 47.569265 70.337826 47.510795 C 65.753717 47.031563 61.560277 45.882384 59.588611 44.565755 L 58.963843 44.148726 L 57.329317 44.309957 C 52.549693 44.780846 43.64692 45.841691 38.052458 46.606974 C 37.241503 46.717907 36.09722 46.87416 35.509977 46.95424 C 28.716848 47.880619 25.505464 48.33189 25.472864 48.36449 C 25.451248 48.386106 25.904702 48.709859 26.480554 49.084342 C 27.768074 49.921633 30.704749 51.375705 32.611963 52.120333 C 41.522058 55.599075 55.680449 57.954563 70.287183 58.388167 C 89.346509 58.953948 107.32726 56.730628 119.19893 52.339958 C 120.88546 51.716203 123.03244 50.757093 124.21981 50.097201 C 125.41081 49.435301 126.96093 48.428226 126.89303 48.360356 C 126.86746 48.334783 125.52611 48.135692 123.91233 47.918005 C 122.29854 47.700319 119.81118 47.357932 118.38502 47.156812 C 115.91266 46.808156 110.84905 46.133879 107.3521 45.688167 C 105.51982 45.454629 96.394241 44.434639 94.569938 44.259314 L 93.37983 44.144592 L 92.790202 44.523897 C 91.024341 45.658841 88.251868 46.549602 84.624809 47.148027 C 82.902137 47.43225 80.308224 47.716707 80.430233 47.607947 C 80.665835 47.397929 82.922545 46.774047 84.08479 46.597673 C 87.984147 46.005937 91.4585 44.87215 92.742143 43.772522 L 93.06512 43.49657 L 92.215043 41.004732 C 90.774259 36.782224 90.943053 37.041808 89.496346 36.834444 C 87.787262 36.589473 87.282202 36.635164 85.794246 37.168274 C 83.159055 38.112419 80.442296 38.496694 76.337459 38.506694 C 71.908766 38.517429 69.33984 38.144061 66.160819 37.027714 C 65.309321 36.728703 65.052352 36.646367 64.641016 36.65306 z M 127.21032 49.576302 C 127.1801 49.577397 127.12157 49.611323 127.05426 49.669836 C 126.95638 49.754943 126.46414 50.069762 125.96079 50.369535 C 125.41973 50.691765 124.65088 51.285783 124.07976 51.822677 C 122.29334 53.502044 119.63834 55.421477 117.30188 56.722119 C 116.71699 57.047711 116.29723 57.30161 116.28386 57.336035 L 116.28386 57.336552 L 116.28386 57.337069 L 116.28334 57.337585 L 116.28386 57.338102 L 116.28386 57.338619 L 116.28386 57.339136 L 116.28437 57.339136 L 116.28489 57.339653 L 116.28541 57.339653 C 116.28809 57.340122 116.2934 57.339464 116.30039 57.337585 C 116.41225 57.307539 117.19057 57.113666 118.02949 56.906604 C 119.11298 56.639179 119.64318 56.457787 119.85987 56.279769 C 120.02766 56.141933 121.69154 54.650525 123.55783 52.965759 C 125.42413 51.280994 127.01427 49.851816 127.09147 49.789726 C 127.16863 49.727632 127.23203 49.640389 127.23203 49.595939 C 127.23203 49.582048 127.22406 49.575804 127.21032 49.576302 z M 25.248588 49.669836 C 25.245801 49.670388 25.242898 49.672513 25.241353 49.673971 C 25.240667 49.675125 25.23996 49.677906 25.239803 49.679655 C 25.239803 49.748483 32.079423 55.912137 32.565454 56.281319 C 32.823712 56.47749 33.371001 56.668157 34.497636 56.954146 C 35.362104 57.173586 36.114989 57.357824 36.170919 57.363424 C 36.172667 57.363598 36.174417 57.363569 36.17557 57.363424 C 36.175821 57.363368 36.176905 57.362982 36.17712 57.362907 L 36.177637 57.362907 L 36.177637 57.36239 L 36.178153 57.36239 L 36.178153 57.361873 L 36.17867 57.361873 L 36.17867 57.361357 L 36.17867 57.36084 L 36.17867 57.360323 L 36.17867 57.359806 L 36.17867 57.35929 C 36.166772 57.331459 35.932709 57.185031 35.61178 57.007373 C 32.755509 55.426223 30.239947 53.640073 28.290263 51.808207 C 27.758948 51.308998 26.95795 50.679678 26.510527 50.409843 C 26.063101 50.140008 25.59457 49.853076 25.46873 49.772156 C 25.366487 49.7064 25.279221 49.666415 25.250138 49.669836 C 25.249649 49.669894 25.249053 49.669744 25.248588 49.669836 z M 34.521407 53.95898 C 34.505942 53.974442 35.076449 54.265663 35.789547 54.605969 C 37.278546 55.316554 40.360031 56.36979 43.594238 57.274023 C 44.824653 57.618027 45.945739 57.938605 46.085559 57.986125 C 46.598409 58.160411 46.591431 58.074065 46.036466 57.387195 C 45.571828 56.812125 45.401891 56.673963 45.091305 56.617733 C 43.041872 56.246683 38.183344 55.044357 35.868612 54.335185 C 35.143016 54.112881 34.536857 53.94352 34.521407 53.95898 z M 117.85069 53.961047 C 117.83462 53.94498 117.06751 54.160211 116.14588 54.439054 C 114.10431 55.056734 110.65625 55.927897 108.50087 56.370719 L 106.90355 56.698865 L 106.39092 57.339136 C 106.10874 57.691268 105.87778 58.008529 105.87778 58.044519 C 105.87778 58.080519 105.93673 58.087245 106.00903 58.059505 C 106.08131 58.031766 106.68748 57.864151 107.35624 57.686401 C 111.16277 56.674662 115.05912 55.37312 116.72466 54.556877 C 117.36023 54.245398 117.86679 53.977117 117.85069 53.961047 z M 105.60234 56.941744 L 105.25714 57.000655 C 103.12546 57.363621 102.96564 57.407372 102.81285 57.673482 C 102.72999 57.817793 102.535 58.153515 102.37928 58.419173 C 102.22352 58.684831 102.14448 58.901831 102.20358 58.901831 C 102.2627 58.901831 102.764 58.805281 103.31772 58.687374 L 104.32438 58.473433 L 104.96362 57.707589 L 105.60234 56.941744 z M 47.023486 56.99187 C 46.949772 56.992682 46.901643 57.008868 46.90308 57.037862 C 46.905282 57.084252 47.191354 57.430593 47.5387 57.807324 C 48.163589 58.485074 48.179498 58.494339 49.034733 58.687891 C 49.995952 58.90543 50.28811 58.939154 50.23776 58.825867 C 50.219116 58.783921 50.033447 58.450237 49.825382 58.08431 L 49.447111 57.418717 L 48.452856 57.240434 C 47.905892 57.14228 47.332319 57.03762 47.178516 57.00789 C 47.12084 56.996741 47.067715 56.991383 47.023486 56.99187 z M 50.63877 57.604753 C 50.480972 57.657353 51.578516 59.203991 51.810791 59.256331 C 51.933622 59.284011 52.262889 59.347655 52.542529 59.397925 C 53.587425 59.585755 53.57301 59.610398 52.971444 58.677039 L 52.432975 57.841947 L 51.57773 57.709139 C 51.107363 57.636152 50.68497 57.589353 50.63877 57.604753 z M 101.78655 57.623873 C 101.76459 57.601917 101.3481 57.637251 100.86103 57.702421 L 99.975293 57.82076 L 99.468864 58.609859 C 99.190478 59.043841 98.962952 59.424742 98.962952 59.455802 C 98.962952 59.486862 99.020166 59.512196 99.090076 59.51213 C 99.3153 59.511918 100.66112 59.238012 100.77111 59.170032 C 100.91148 59.08328 101.8156 57.706738 101.78759 57.625423 C 101.78745 57.625143 101.78724 57.624629 101.78707 57.62439 L 101.78655 57.623873 z M 98.677181 58.003695 C 98.626496 58.003985 98.556677 58.011811 98.479777 58.027466 C 97.636109 58.199204 91.679109 58.770151 88.336727 58.9995 C 82.893575 59.372999 73.347132 59.479693 68.100753 59.225842 C 63.611766 59.008638 58.66848 58.611357 55.239522 58.191797 C 54.373921 58.085889 53.65412 58.010889 53.63962 58.025399 C 53.62511 58.039908 53.85457 58.436744 54.149666 58.907515 L 54.686068 59.763794 L 55.54648 59.887301 C 57.275214 60.135341 61.048809 60.525797 63.67725 60.728593 C 65.159339 60.842942 66.784014 60.988377 67.287366 61.052087 C 67.790718 61.115803 69.072105 61.203321 70.134737 61.246391 C 72.6074 61.346606 82.96463 61.268035 84.167472 61.139937 C 84.670824 61.086333 86.730013 60.904205 88.74342 60.735311 C 93.241326 60.358004 97.659275 59.854842 97.776978 59.706433 C 97.879879 59.576688 98.759347 58.072156 98.759347 58.025916 C 98.759347 58.010701 98.727866 58.003405 98.677181 58.003695 z M 115.40639 58.404704 C 115.37507 58.403723 115.32197 58.415362 115.26222 58.438293 C 115.16661 58.474982 114.30892 58.661166 113.35587 58.851705 C 105.12339 60.497605 96.759155 61.472944 86.20094 62.018953 C 82.187287 62.226514 70.986858 62.257043 67.236723 62.07063 C 57.564154 61.589821 50.480959 60.866224 43.187545 59.613932 C 40.842899 59.211352 39.964232 59.047049 38.381637 58.714762 C 37.639913 58.559026 37.067776 58.462212 37.110396 58.499272 C 37.187615 58.566407 38.517688 59.091715 46.238005 62.10577 C 48.475127 62.979154 50.809045 63.892744 51.424251 64.136137 C 52.03946 64.379528 54.030092 65.159518 55.847754 65.868848 C 57.665412 66.578178 60.525081 67.695723 62.202922 68.352417 C 63.880761 69.00911 65.334582 69.575525 65.433732 69.611255 C 65.499779 69.635052 65.540086 69.655115 65.555688 69.69032 C 66.094104 69.913438 66.443528 70.064912 66.670349 70.16781 C 66.869363 70.202529 67.561665 70.44252 68.356551 70.755888 C 69.278648 71.119403 70.719505 71.686055 71.558423 72.015243 C 72.397344 72.344427 73.632857 72.829883 74.303992 73.09373 C 74.975129 73.357575 75.762055 73.59554 76.053239 73.62238 C 76.635058 73.676003 76.533352 73.709859 80.760962 72.044698 C 83.877042 70.817347 85.779886 70.08803 85.794246 70.1151 C 85.79553 70.11752 85.802483 70.132759 85.8144 70.159025 L 86.80142 69.760083 C 86.80174 69.759678 86.813435 69.754829 86.813822 69.754399 C 86.872649 69.688922 87.69258 69.333833 88.717582 68.932743 C 89.794381 68.511384 92.391507 67.493576 94.488806 66.670866 C 96.586104 65.848156 98.50767 65.098044 98.759347 65.003784 C 99.011022 64.909527 100.68156 64.256934 102.47126 63.553743 C 104.26095 62.850552 106.13717 62.115465 106.64052 61.919735 C 108.09288 61.354979 113.7812 59.125941 114.6483 58.781942 C 115.06819 58.615359 115.41412 58.457432 115.43533 58.423307 C 115.43546 58.423048 115.43576 58.422 115.43585 58.421757 L 115.43636 58.42124 L 115.43636 58.420723 C 115.43636 58.410651 115.42519 58.405292 115.40639 58.404704 z M 65.448201 70.058773 C 65.058965 70.952391 64.244446 72.760924 62.68868 76.188631 C 61.736758 78.28593 60.100207 81.901236 59.051693 84.222249 C 58.003179 86.543259 55.9341 91.118833 54.453524 94.390621 C 51.004933 102.01135 49.659465 104.98576 45.829244 113.45716 C 40.146602 126.02561 37.339207 132.22929 35.856209 135.49716 C 35.050509 137.27256 34.391699 138.76645 34.391699 138.81685 C 34.391699 139.02345 35.804834 140.1875 37.212199 141.14022 C 38.037785 141.69911 39.468521 142.57127 40.391333 143.07809 C 41.314145 143.58491 42.192613 144.09607 42.343669 144.21394 C 42.909449 144.65541 46.27091 146.03542 49.034216 146.96054 C 54.090895 148.65347 58.721331 149.64188 65.711235 150.52104 C 67.09187 150.69469 70.403516 150.93692 72.524255 151.01972 L 72.524255 151.02024 C 75.62271 151.14112 76.486237 151.1422 79.387919 151.03006 C 88.222346 150.68864 95.939298 149.39872 102.97976 147.08611 C 105.79924 146.15999 109.53755 144.63646 109.99535 144.22737 C 110.10761 144.12705 110.72573 143.77157 111.36891 143.43724 C 113.52042 142.31883 116.11967 140.61421 117.44658 139.45092 L 118.06204 138.9109 L 117.90753 138.53883 C 117.82251 138.33426 117.08889 136.7029 116.27766 134.91321 C 115.46642 133.12351 114.71055 131.45349 114.59766 131.20181 C 114.33352 130.61295 114.05326 129.99304 113.42512 128.60869 C 113.14597 127.99348 112.15207 125.79667 111.21647 123.72733 C 110.28088 121.658 108.41738 117.54013 107.07563 114.57595 C 105.73389 111.61177 104.55365 109.00312 104.45306 108.77941 C 104.12483 108.04944 102.32554 104.06919 100.84449 100.79695 C 100.04711 99.035214 98.516147 95.649282 97.442114 93.272343 C 96.368079 90.895404 95.290355 88.515609 95.047428 87.984294 C 94.651627 87.118621 92.555197 82.483043 88.286601 73.036369 C 87.71885 71.779904 87.215662 70.670973 86.965751 70.124919 L 86.019039 70.614811 C 86.065447 70.718451 86.116651 70.83246 86.169934 70.951742 C 86.369799 71.399166 87.402561 73.68721 88.465401 76.036186 C 89.528241 78.385159 91.391175 82.503537 92.6052 85.188082 C 93.819223 87.872624 95.78679 92.219857 96.977543 94.848474 C 98.168292 97.477087 100.22848 102.02998 101.55556 104.9662 C 102.88265 107.90242 105.04485 112.68418 106.36043 115.59243 C 107.67601 118.50069 109.63195 122.82524 110.70694 125.20218 C 111.78193 127.57912 113.59008 131.5755 114.7253 134.08329 L 116.78977 138.64322 L 116.49418 138.88558 C 114.2635 140.71891 110.10476 143.06046 106.38369 144.57774 C 98.642964 147.73405 89.55938 149.52542 79.337276 149.91178 L 79.337276 149.91126 C 76.539894 150.01744 76.116863 150.01711 72.880306 149.90816 C 58.170825 149.413 44.185922 145.31687 36.323364 139.20081 C 35.959832 138.91802 35.650421 138.68012 35.635551 138.67112 C 35.61425 138.65872 37.77565 133.83419 39.30096 130.48971 C 39.44125 130.18211 40.2069 128.48889 41.002148 126.72715 C 42.204793 124.0629 43.855803 120.41399 47.76556 111.77922 C 48.006137 111.2479 48.875114 109.32634 49.696708 107.50868 C 50.518302 105.69102 51.328614 103.90605 51.497115 103.54252 C 51.665619 103.17898 51.952767 102.53829 52.135319 102.11883 C 52.317875 101.69937 53.473652 99.137113 54.703638 96.424605 C 55.933621 93.712097 57.591269 90.051431 58.387134 88.289701 C 59.183002 86.527968 59.948903 84.834743 60.089355 84.52714 C 60.351902 83.952127 64.503601 74.770501 65.814071 71.866931 C 66.066685 71.30722 66.301992 70.79851 66.451758 70.486137 L 65.448201 70.058773 z M 61.139937 91.396488 C 61.086643 91.449782 60.790012 92.889144 60.480546 94.594743 C 59.056582 102.44285 58.487765 105.59045 58.348893 106.38989 C 58.266313 106.86528 58.083113 107.9178 57.9422 108.72876 C 57.396087 111.87168 56.775367 115.61919 56.708167 116.1774 C 56.651166 116.65092 56.67237 116.81494 56.820304 117.04143 C 57.204875 117.63024 58.415131 119.10759 58.589705 119.20099 C 59.146881 119.49918 66.007455 120.85713 73.490088 122.15068 C 73.769728 122.19902 74.387745 122.30858 74.863131 122.39408 C 79.561363 123.23903 82.754616 123.80882 83.811422 123.99088 C 85.633716 124.30481 85.82293 124.36028 85.9007 124.60531 C 85.943085 124.73886 85.908472 124.87711 85.808199 124.97738 C 85.663317 125.12226 85.552998 125.12061 84.603105 124.9562 C 83.54394 124.77289 78.947442 123.95248 74.303992 123.11858 C 70.311786 122.40162 69.522278 122.26165 67.948307 121.99049 C 67.137352 121.85077 66.405423 121.71705 66.321533 121.69335 C 66.237642 121.66961 65.639167 121.55766 64.991899 121.44478 L 63.815226 121.23963 L 62.500578 121.59981 C 61.777613 121.7977 60.316896 122.20388 59.254264 122.5026 C 58.191632 122.80132 56.544281 123.2602 55.593506 123.52218 C 52.430292 124.39382 51.881274 124.58138 51.780819 124.82649 C 51.67439 125.08618 50.966398 130.47666 50.966398 131.02766 C 50.966398 131.30254 51.026472 131.43897 51.195325 131.54753 C 51.321162 131.62844 53.025728 132.04532 54.983207 132.47408 C 56.940688 132.90284 58.839574 133.31909 59.203105 133.39909 C 59.566637 133.47912 60.047029 133.58384 60.27074 133.63164 C 60.494452 133.67942 62.073252 134.02665 63.779053 134.40368 C 65.484857 134.78071 67.063655 135.12726 67.287366 135.17366 C 67.511078 135.22003 69.890356 135.7433 72.574898 136.33638 C 75.259444 136.92946 77.68511 137.46252 77.96475 137.52132 C 78.244387 137.58009 78.633031 137.66427 78.82878 137.70787 C 80.057036 137.98175 85.535318 139.18601 86.2521 139.33982 C 86.727486 139.44183 87.390859 139.59063 87.726428 139.67003 C 88.35929 139.81988 88.837019 139.79597 89.098437 139.60181 C 89.926119 138.98707 95.753975 133.95669 95.821025 133.79907 C 95.914783 133.57864 96.481181 129.38022 96.58842 128.11156 C 96.646208 127.42796 96.633408 127.34963 96.448376 127.25063 C 96.336441 127.19073 94.602934 126.77082 92.595898 126.31735 L 88.946509 125.4926 L 88.514494 125.04818 C 88.276802 124.8037 88.082419 124.5668 88.082996 124.5216 L 88.082996 124.52108 C 88.091908 124.47184 88.638062 124.14391 89.303593 123.78883 C 89.974368 123.43094 90.565084 123.08768 90.616174 123.02608 C 90.66726 122.96451 90.899652 122.18201 91.132939 121.28717 C 91.366223 120.39232 91.610441 119.58356 91.675541 119.48986 C 91.740647 119.39611 92.366019 118.84277 93.06512 118.26048 L 94.336361 117.20163 L 95.194706 111.68466 L 96.053569 106.16716 L 95.029858 104.16832 L 94.006148 102.16999 L 93.684721 99.627511 C 93.507804 98.229313 93.315834 96.937602 93.257874 96.756885 C 93.123594 96.33818 93.143996 96.343507 89.455005 95.763147 C 87.833092 95.507982 85.957402 95.210104 85.286267 95.101172 C 83.852216 94.868416 74.718276 93.425955 73.388802 93.222217 C 72.885448 93.145079 70.276799 92.730818 67.592257 92.30186 C 61.021214 91.251887 61.252123 91.284302 61.139937 91.396488 z M 63.587333 94.037154 C 63.710653 94.04112 63.870698 94.057028 64.037435 94.083663 C 64.370905 94.13694 65.489956 94.318418 66.524622 94.487256 C 67.559291 94.656097 69.847336 95.02386 71.609066 95.304777 C 73.3708 95.585694 75.36143 95.905552 76.032568 96.015328 C 77.761593 96.298139 80.542657 96.746079 83.963867 97.292253 C 88.218547 97.971488 88.62416 98.044258 88.728434 98.148531 C 88.785907 98.206005 88.359496 100.54454 87.629793 104.17194 C 85.403647 115.23824 84.838621 118.03117 84.631527 118.99894 C 84.517834 119.53026 84.424135 119.99935 84.423271 120.04125 C 84.420838 120.15777 83.860259 120.11135 82.79443 119.90586 C 82.263116 119.80342 81.577064 119.67491 81.269458 119.62061 C 80.961855 119.56637 80.30982 119.45012 79.820451 119.36222 C 77.602699 118.9637 77.118659 118.8774 76.64235 118.7943 C 76.362713 118.74551 75.218945 118.53991 74.100387 118.33748 C 71.241578 117.82013 71.2146 117.81553 69.575081 117.52978 C 68.764123 117.38843 67.89509 117.22963 67.643416 117.17683 C 67.391739 117.12406 66.773726 117.0083 66.270374 116.92 C 65.767022 116.83168 64.71449 116.64259 63.931498 116.49935 C 63.148506 116.35611 62.25628 116.2015 61.948674 116.1557 C 61.64107 116.10993 61.206555 116.02553 60.982841 115.96863 C 60.759129 115.91174 60.356203 115.8351 60.087288 115.7981 C 59.818374 115.76111 59.575396 115.67218 59.547786 115.60018 C 59.520166 115.52821 59.637406 114.65011 59.808236 113.64939 C 60.255322 111.03035 60.887659 107.39465 61.070691 106.38989 C 61.306036 105.09798 61.499774 103.99323 62.052543 100.79695 C 62.328203 99.203002 62.623287 97.53297 62.708317 97.085547 C 63.122983 94.903518 63.289016 94.130132 63.356856 94.061442 C 63.377225 94.040822 63.464013 94.033188 63.587333 94.037154 z M 63.917029 95.538354 C 63.82037 95.542734 63.779053 95.568022 63.779053 95.612252 C 63.779053 95.72517 61.821556 106.88971 61.488236 108.6776 C 61.036858 111.09875 60.423702 114.63262 60.423702 114.81263 C 60.423702 115.08091 60.202307 115.02499 63.72841 115.64617 C 64.207171 115.73052 65.404045 115.94745 69.371993 116.66936 C 70.294805 116.83725 71.278786 117.01529 71.558423 117.06469 C 71.838063 117.11408 72.478239 117.22897 72.981592 117.31997 C 73.484944 117.41102 74.125637 117.52532 74.405278 117.57422 C 76.370225 117.91744 81.39021 118.83281 82.184648 118.99274 C 83.769072 119.31171 83.677419 119.34881 83.724089 118.36332 C 83.822915 116.27655 83.356825 113.48559 82.506075 111.06764 C 80.931965 106.59383 77.290379 102.05052 72.930949 99.122115 C 70.628012 97.575135 68.026864 96.422105 65.507629 95.830843 C 64.610056 95.620185 64.129678 95.52872 63.917029 95.538354 z M 77.659342 120.62726 C 77.953199 120.52342 83.09648 121.47443 83.209908 121.65356 C 83.333365 121.84854 83.32498 121.98704 83.180969 122.13105 C 83.06816 122.24385 82.476318 122.30451 82.379468 122.21321 C 82.356166 122.19123 81.925255 122.10134 81.421903 122.01374 C 78.656038 121.53256 77.673864 121.3325 77.542037 121.22309 C 77.342777 121.05772 77.410164 120.71526 77.659342 120.62726 z M 84.295113 121.74864 C 84.558061 121.74412 84.789585 122.04692 84.624809 122.35481 C 84.564946 122.46669 84.435671 122.55789 84.336971 122.55789 C 83.970198 122.55789 83.779765 122.12187 84.035181 121.86646 C 84.116208 121.78543 84.207464 121.75015 84.295113 121.74864 z " /><path
       style="fill:#ffd42a;stroke-width:2.01205"
       d="M 275.22753,566.33003 C 238.62193,564.95206 201.92287,557.54606 173.07629,545.71557 160.4328,540.53025 143.45421,530.96524 136.922,525.3478 l -1.75648,-1.5105 2.09205,-4.79119 c 1.15062,-2.63516 14.12871,-31.38233 28.84018,-63.8826 14.71148,-32.50027 29.4466,-65.0804 32.7447,-72.40028 6.21572,-13.79528 51.27606,-113.37516 52.43174,-115.87009 l 0.65487,-1.41377 2.73229,0.95078 c 1.50276,0.52293 8.24216,3.11184 14.97645,5.75312 14.46427,5.6731 17.80143,6.71322 19.99394,6.23166 0.88549,-0.19449 8.94801,-3.2058 17.91673,-6.69181 8.96872,-3.48602 16.39519,-6.24978 16.50328,-6.1417 0.26839,0.2684 116.14626,256.43672 116.49529,257.53325 0.81362,2.55612 -19.66894,14.90852 -36.85577,22.22659 -34.79732,14.81652 -83.04069,22.69866 -128.46374,20.98877 z m 64.5204,-40.73675 c 5.68534,-4.69259 22.18449,-19.04759 22.52395,-19.59685 0.50133,-0.81117 2.90345,-19.10045 2.9141,-22.18742 0.005,-1.51989 -0.22617,-2.90912 -0.51426,-3.08717 -0.4718,-0.29159 -27.48752,-6.64704 -28.29327,-6.65599 -0.18485,-0.002 -0.94119,-0.79707 -1.68077,-1.76671 l -1.34468,-1.76297 4.69434,-2.5972 4.69433,-2.5972 1.08712,-3.75824 c 0.59791,-2.06704 1.46868,-5.11491 1.93504,-6.77307 0.78576,-2.79375 1.20723,-3.31845 5.74789,-7.15565 2.69496,-2.27746 4.98057,-4.19555 5.07911,-4.26242 0.26514,-0.17991 6.47527,-40.13959 6.47527,-41.66569 0,-0.71774 -1.67238,-4.50125 -3.7164,-8.40779 l -3.7164,-7.1028 -1.34828,-10.08654 c -0.74155,-5.54759 -1.48596,-10.44531 -1.65423,-10.88381 -0.16827,-0.4385 -1.06332,-1.04356 -1.98902,-1.34458 -2.28595,-0.74334 -115.7873,-18.66897 -118.20805,-18.66897 -1.05821,0 -1.92401,0.0883 -1.92401,0.19614 0,0.10789 -2.16349,12.02598 -4.80774,26.48466 -5.6598,30.94749 -11.69527,66.29608 -11.69527,68.49691 0,1.55412 3.70312,7.01193 6.45543,9.51429 2.05012,1.86393 16.46962,4.80652 69.93751,14.27219 34.73762,6.14975 33.80455,5.94944 33.80455,7.25704 0,0.5901 -0.37047,1.01161 -0.88909,1.01161 -0.48898,0 -17.0785,-2.89359 -36.86558,-6.43019 -19.78707,-3.53661 -38.13254,-6.80389 -40.76769,-7.26063 l -4.7912,-0.83043 -20.49567,5.70978 c -11.27261,3.14038 -21.48196,6.14055 -22.68744,6.66705 -2.51199,1.09712 -2.27949,0.34592 -3.87667,12.52534 -1.86785,14.24344 -1.84116,13.42811 -0.46827,14.30705 1.49062,0.95431 3.88277,1.50162 78.13846,17.87735 32.93947,7.2642 61.01541,13.23561 62.39098,13.26979 2.26934,0.0564 2.81187,-0.19438 5.85591,-2.70688 z"
       id="path2"
       transform="scale(0.26458333)" /><path
       style="fill:#4d4d4d;stroke-width:2.01205"
       d="m 261.91865,220.30635 c -55.98249,-2.4209 -105.0058,-10.72113 -137.50235,-23.28076 -9.37903,-3.62492 -27.709846,-13.09224 -26.905953,-13.89613 1.189793,-1.1898 115.318493,-15.70366 123.485563,-15.70379 1.25935,-2e-5 2.99673,0.64122 4.99093,1.84207 8.08652,4.86944 26.81442,9.60807 42.55189,10.7667 2.36126,0.17384 4.15241,0.16186 3.98033,-0.0266 -0.83648,-0.91619 -8.99868,-3.17094 -15.77566,-4.35793 -8.7303,-1.5291 -16.08769,-3.36167 -21.15694,-5.26973 -4.21511,-1.58656 -10.93266,-5.04456 -10.93266,-5.62782 0,-0.65928 6.24254,-18.72503 7.41759,-21.46631 1.24978,-2.91562 1.94225,-3.26106 8.20887,-4.09499 4.46855,-0.59465 4.54403,-0.58498 10.52834,1.34962 13.19741,4.26644 21.66265,5.28823 40.78225,4.92262 15.59064,-0.29813 21.88887,-1.16838 31.8148,-4.39598 6.04266,-1.96488 9.64452,-2.33754 15.03468,-1.55553 4.79381,0.69549 4.60347,0.40163 9.44667,14.58453 l 3.4879,10.21403 -1.20811,1.02765 c -1.74875,1.48755 -7.99635,4.38667 -12.91991,5.99532 -5.04147,1.64719 -9.22276,2.632 -18.33292,4.31795 -7.66908,1.41926 -14.19149,3.2393 -14.72977,4.11026 -0.93284,1.50938 20.73986,-1.75573 30.64874,-4.61739 6.93933,-2.00406 9.95221,-3.21406 14.92429,-5.99375 2.4736,-1.38289 3.99162,-1.89491 5.32355,-1.7956 3.51253,0.26187 40.18842,4.35255 51.10608,5.70016 17.6436,2.17781 69.33167,9.22993 71.06939,9.69642 l 1.59707,0.42874 -3.19413,2.07001 c -29.00544,18.79749 -87.89843,31.7203 -158.90796,34.86896 -10.60687,0.47032 -45.52917,0.5896 -54.83257,0.18728 z"
       id="path3"
       transform="scale(0.26458333)" /><g
       id="g26"
       clip-path="url(#clipPath26)"><g
         inkscape:label="Clip"
         id="g25"><path
           id="path4"
           style="fill:#1a1a1a;stroke-width:0.532355"
           d="m 114.15944,58.829484 c -0.0252,-0.02582 -1.08079,0.147675 -2.34611,0.386022 -7.52054,1.416637 -15.028266,2.270914 -24.879101,2.830835 -4.037875,0.229511 -18.474996,0.184703 -22.64203,-0.07028 -9.285452,-0.568172 -15.861623,-1.32579 -23.359814,-2.69131 -1.463881,-0.266594 -2.677972,-0.467413 -2.698027,-0.446485 -0.02006,0.02093 6.13515,2.446558 13.678751,5.39037 6.737803,2.629358 12.383106,4.876406 13.513906,5.375383 l 0.0078,-0.01394 c 0.665364,0.260794 1.082911,0.444944 1.345139,0.573608 0.04005,-0.02762 0.07052,-0.02761 0.100251,-0.02016 0.186243,0.04674 2.217079,0.82064 4.512903,1.720308 3.093381,1.212204 4.338261,1.637048 4.807976,1.639694 0.481677,0.0026 1.687666,-0.408699 5.023983,-1.713074 2.414627,-0.944025 4.446246,-1.71669 4.514453,-1.71669 h 5.29e-4 l 5.29e-4,5.29e-4 5.29e-4,5.29e-4 c 0.0066,0.0062 0.02684,0.04255 0.05994,0.107487 l 0.939996,-0.359151 c -0.145812,-0.161025 0.338145,-0.324824 14.202227,-5.753653 7.29437,-2.856293 13.24147,-5.214167 13.21625,-5.239991 z M 65.497294,70.092363 c -0.542126,1.289714 -3.234944,7.243233 -16.543176,36.660297 -7.952258,17.57799 -14.427636,32.0418 -14.389304,32.1417 0.296699,0.77318 6.788939,4.87567 9.791134,6.18722 4.537189,1.98215 10.630728,3.71051 16.351459,4.63848 4.202014,0.68161 6.612173,0.93167 12.18375,1.26246 1.387486,0.0824 7.740277,-0.0482 9.859348,-0.20258 9.139862,-0.66567 16.866585,-2.33409 24.085865,-5.20071 1.00709,-0.39989 2.21151,-0.93738 2.67633,-1.19476 2.92293,-1.61854 4.31053,-2.43226 5.41207,-3.17293 1.40836,-0.94698 2.96881,-2.20719 2.96881,-2.39779 0,-0.11768 -7.81062,-17.41971 -24.258984,-53.73884 -3.304855,-7.297346 -6.100085,-13.544724 -6.708119,-14.928453 l -0.901237,0.496776 c 1.06044,2.22395 4.934093,10.697784 9.47384,20.734652 5.29976,11.717145 12.27682,27.135385 15.50448,34.262505 5.40473,11.93437 5.8514,12.97809 5.6503,13.20798 -0.3765,0.43042 -2.9818,2.13981 -4.88291,3.20394 -8.20214,4.59111 -18.843286,7.24899 -31.55569,7.88169 -15.064621,0.74978 -31.219999,-2.65041 -40.938587,-8.61653 -1.848914,-1.13502 -3.641122,-2.47095 -3.641122,-2.71404 0,-0.21098 0.620808,-1.59105 17.889347,-39.768118 C 63.33137,77.15529 65.763261,71.793959 66.514286,70.519726 Z"
           sodipodi:nodetypes="cssssssccccscsscccccscccssssscscsssccsssssssscc" /></g></g><path
       style="fill:#1a1a1a;stroke-width:2.01205"
       d="m 291.19818,518.75289 c -22.39884,-4.94177 -52.22403,-11.51815 -66.2782,-14.61417 -28.76319,-6.33632 -31.49889,-7.02295 -31.87383,-8.00003 -0.39131,-1.01974 2.32976,-22.12229 3.04685,-23.62902 0.77626,-1.63106 1.67049,-1.92999 25.77331,-8.61573 18.86292,-5.23228 19.44143,-5.35687 22.38792,-4.82155 34.83446,6.32864 78.33708,13.91571 79.15142,13.80439 1.59501,-0.21805 1.71568,-2.39708 0.16944,-3.05986 -0.67878,-0.29096 -16.80553,-3.29881 -35.83722,-6.68412 -35.96455,-6.39729 -59.31503,-10.87014 -63.8826,-12.23688 -2.27714,-0.68139 -3.08487,-1.32924 -5.58973,-4.48335 -1.61037,-2.02778 -3.14381,-4.2735 -3.40764,-4.99048 -0.34143,-0.9279 0.24791,-5.65642 2.0448,-16.40618 2.66478,-15.94186 11.23228,-63.83137 13.15435,-73.52853 1.11926,-5.64683 1.15416,-5.72282 2.62854,-5.72282 1.44284,0 104.54234,16.18758 114.02265,17.90261 3.33311,0.60298 4.81513,1.11573 5.1765,1.79098 0.2785,0.52037 1.1103,5.40087 1.84846,10.84557 l 1.3421,9.89945 3.82188,7.66531 3.82188,7.66532 -3.0337,19.62807 c -1.66854,10.79543 -3.14308,20.10718 -3.27675,20.69277 -0.13367,0.58559 -2.49394,2.93281 -5.24505,5.21605 l -5.00202,4.15134 -1.43275,5.16487 c -0.78802,2.84068 -1.66135,5.90363 -1.94074,6.80656 -0.40648,1.31367 -1.40933,2.14762 -5.01924,4.17389 -2.48119,1.39272 -4.66188,2.77591 -4.84596,3.07377 -0.18409,0.29786 0.47395,1.34381 1.46231,2.32433 1.69823,1.68476 2.5506,1.95791 15.50591,4.96907 7.5399,1.75247 13.94813,3.33416 14.2405,3.51485 0.96413,0.59587 0.31503,8.77022 -1.64032,20.65739 l -0.59587,3.62249 -5.40364,4.81439 c -2.972,2.64791 -8.7856,7.66557 -12.91913,11.15035 -6.87106,5.79267 -7.69274,6.33203 -9.58239,6.28995 -1.13679,-0.0253 -20.39321,-4.08928 -42.79204,-9.03105 z m 28.95629,-56.56685 c 0.47011,-0.76793 0.38596,-1.11395 -0.41575,-1.70953 -1.85045,-1.37468 -3.94479,0.70357 -2.33314,2.31522 0.85416,0.85416 2.01126,0.59919 2.74889,-0.60569 z m -5.5383,-0.62749 c 0.3614,-0.43546 0.53174,-1.11844 0.37851,-1.51772 -0.28919,-0.75363 -7.18752,-2.35981 -16.3309,-3.80243 -4.3419,-0.68506 -5.14935,-0.69134 -5.79562,-0.0451 -1.25369,1.2537 -0.29366,2.30612 2.68764,2.94629 6.3098,1.35489 15.69094,3.09258 17.00448,3.14978 0.76934,0.0335 1.69448,-0.29538 2.05589,-0.73084 z m 4.51975,-7.7083 c 0.51216,-0.82869 15.67842,-76.62206 16.04362,-80.17791 l 0.33223,-3.23499 -5.5207,-0.92345 c -22.96997,-3.8422 -88.06429,-14.16695 -89.31821,-14.16695 -1.49071,0 -1.59639,0.15989 -2.3749,3.5934 -0.81813,3.6082 -8.96458,49.5456 -12.07433,68.08649 -1.30271,7.76702 -1.51847,10.00551 -0.99553,10.3287 0.36719,0.22694 2.84368,0.80658 5.5033,1.28808 2.65963,0.48151 23.162,4.19733 45.56084,8.25738 22.39883,4.06005 41.13024,7.40038 41.62535,7.42295 0.49512,0.0226 1.04336,-0.1906 1.21833,-0.4737 z"
       id="path5"
       transform="scale(0.26458333)" /><path
       style="fill:#666666;stroke-width:2.01205"
       d="m 302.11145,447.95597 c -5.8559,-1.12781 -23.46354,-4.3463 -39.12809,-7.15221 -37.90334,-6.78944 -34.07142,-5.93035 -34.06713,-7.63764 0.002,-0.78442 2.13629,-13.40421 4.74294,-28.04398 2.60665,-14.63976 5.39138,-30.4507 6.18828,-35.13543 0.79691,-4.68472 1.51472,-8.5949 1.59512,-8.68929 0.0804,-0.0944 2.67636,0.43811 5.76878,1.18335 16.07051,3.87278 30.04019,11.89171 42.70265,24.51233 16.3502,16.29619 25.7263,36.68573 25.9624,56.4586 l 0.0763,6.38826 -1.59706,0.0833 c -0.87839,0.0458 -6.38826,-0.83947 -12.24417,-1.96727 z"
       id="path6"
       transform="scale(0.26458333)" /><path
       style="fill:#1a1a1a;stroke-width:2.01205"
       d="m 272.82969,141.06882 c -6.5513,-0.92981 -17.50716,-3.65234 -19.22377,-4.77711 -1.48413,-0.97244 -1.54889,-1.95143 -0.44027,-6.6552 2.86536,-12.15744 12.09753,-21.22108 24.98983,-24.53363 5.79487,-1.48894 13.90227,-1.48894 19.69713,0 14.19159,3.64639 24.77098,15.28617 25.39715,27.94273 l 0.15589,3.151 -5.05737,1.52069 c -9.63411,2.89686 -15.69651,3.73305 -28.48099,3.92842 -8.14925,0.12454 -13.33184,-0.051 -17.0376,-0.5769 z m 32.18571,-9.19908 c 0.0504,-1.44048 2.22887,-4.92612 3.62425,-5.79888 0.80142,-0.50125 1.53947,-0.9664 1.6401,-1.03365 0.10064,-0.0673 -0.89247,-1.15789 -2.20689,-2.42363 -2.24034,-2.15736 -3.55465,-4.92104 -3.56284,-7.49181 -0.002,-0.5124 -0.24253,-0.93163 -0.53532,-0.93163 -0.2928,0 -0.5347,0.65879 -0.53756,1.46398 -0.009,2.56839 -2.3502,6.77752 -4.51307,8.11424 l -1.98149,1.22464 1.61878,0.68065 c 2.19834,0.92432 4.4112,4.42317 4.76773,7.53844 l 0.29051,2.53843 0.68589,-1.59706 c 0.37724,-0.87839 0.6967,-1.90606 0.70991,-2.28372 z"
       id="path7"
       transform="scale(0.26458333)" /><path
       style="fill:none;stroke-width:1.42273"
       d="m 271.40734,570.25684 c -0.93167,-0.0847 -5.25122,-0.41207 -9.59901,-0.72755 -4.34779,-0.31547 -11.54705,-1.0149 -15.99835,-1.5543 -4.45131,-0.53939 -8.68617,-1.02568 -9.4108,-1.08063 -0.72463,-0.055 -1.5716,-0.18879 -1.88216,-0.2974 -0.31055,-0.1086 -3.27495,-0.64653 -6.58755,-1.19539 -16.3404,-2.70743 -35.33419,-7.70759 -50.1777,-13.20941 -11.70295,-4.33775 -22.92778,-10.24479 -36.40162,-19.15627 -7.818,-5.17076 -10.4989,-7.46467 -10.18512,-8.71488 0.41291,-1.64517 24.16976,-54.77921 50.47042,-112.88103 5.5294,-12.21521 10.07666,-22.46357 10.10501,-22.77413 0.0283,-0.31055 0.1783,-0.65915 0.33322,-0.77467 0.38312,-0.28567 26.32373,-57.6148 26.39129,-58.32512 0.0295,-0.31056 0.1725,-0.65424 0.31769,-0.76375 0.47355,-0.35715 7.05613,-15.15113 6.87319,-15.44713 -0.0978,-0.1583 -0.0173,-0.34463 0.1789,-0.41408 0.47151,-0.16686 9.08276,-19.16904 8.85435,-19.53861 -0.0972,-0.15731 -0.0196,-0.34283 0.17254,-0.41228 0.37313,-0.13487 6.72167,-13.89147 6.89355,-14.93757 0.0562,-0.34231 0.21472,-0.70807 0.35218,-0.8128 0.3597,-0.27404 3.06843,-6.49533 3.07212,-7.0559 0.002,-0.2588 0.13112,-0.47054 0.2876,-0.47054 0.30547,0 1.30116,-2.63634 1.17292,-3.10556 -0.0425,-0.15528 0.0791,-0.28233 0.27007,-0.28233 0.19098,0 0.55222,-0.62109 0.80275,-1.38019 0.39934,-1.21005 0.37326,-1.44034 -0.21162,-1.86801 -0.9485,-0.69356 -35.0332,-14.20368 -96.53418,-38.26316 -2.16406,-0.84659 -3.75736,-1.59836 -3.54066,-1.67059 0.2167,-0.0722 3.29884,0.38259 6.8492,1.01071 3.55036,0.62813 6.58351,1.11473 6.74033,1.08135 0.15683,-0.0334 0.53923,0.0395 0.84978,0.16202 0.55102,0.21735 9.41835,1.67715 10.54009,1.73518 0.31056,0.0161 1.98325,0.28053 3.7171,0.58769 6.75803,1.19725 39.09839,4.94914 40.20487,4.66428 0.16983,-0.0437 0.98635,0.0354 1.8145,0.17587 0.82815,0.14045 3.11497,0.35106 5.08183,0.46802 1.96686,0.11697 4.76186,0.29906 6.21112,0.40465 1.44927,0.10559 3.82079,0.26833 5.27005,0.36166 1.44926,0.0933 5.09124,0.36777 8.09328,0.60987 3.69545,0.29802 18.46659,0.44421 45.73647,0.45266 34.53397,0.0107 41.37874,-0.078 47.99506,-0.62158 4.24427,-0.34872 9.41079,-0.73488 11.48117,-0.85813 2.07037,-0.12325 6.30523,-0.4663 9.41079,-0.76233 3.10557,-0.29603 6.83224,-0.62741 8.2815,-0.7364 1.44927,-0.10899 4.75245,-0.45702 7.34042,-0.77342 2.58797,-0.3164 5.04419,-0.57461 5.45826,-0.5738 0.41408,8e-4 1.85393,-0.16546 3.19967,-0.36947 3.46104,-0.52468 5.34106,-0.75368 6.21113,-0.75656 1.07831,-0.004 18.70991,-2.58081 19.38624,-2.83372 0.31055,-0.11613 1.41162,-0.28664 2.44681,-0.37892 1.03518,-0.0923 2.13625,-0.26777 2.4468,-0.38997 0.31056,-0.12221 0.98814,-0.26446 1.50573,-0.31613 2.18221,-0.21782 13.00256,-2.23128 13.17511,-2.45164 0.10352,-0.1322 0.6117,-0.13604 1.1293,-0.009 0.68393,0.16848 0.78679,0.29439 0.37643,0.46079 -0.31056,0.12593 -7.9333,3.13633 -16.93943,6.68977 -9.00613,3.55344 -16.4316,6.6198 -16.50104,6.81414 -0.0695,0.19434 -0.25859,0.27156 -0.42034,0.1716 -0.31384,-0.19397 -7.96172,2.68163 -8.29172,3.11768 -0.10783,0.14247 -0.36544,0.25904 -0.57248,0.25904 -0.81635,0 -8.09329,2.93938 -8.09329,3.26913 0,0.19327 -0.14111,0.26419 -0.31359,0.1576 -0.32442,-0.20051 -8.00057,2.64959 -8.34075,3.09686 -0.10549,0.1387 -0.3612,0.25224 -0.56823,0.25231 -0.80962,2.7e-4 -6.21113,2.1912 -6.21113,2.51932 0,0.19152 -0.14706,0.25734 -0.3268,0.14625 -0.37832,-0.23381 -8.08018,2.78873 -8.26917,3.24518 -0.0694,0.16772 -0.25767,0.22373 -0.41828,0.12446 -0.30189,-0.18657 -23.02423,8.71715 -23.35889,9.15315 -0.10351,0.13487 -0.44172,0.30149 -0.75157,0.37027 -1.24285,0.27587 -1.45716,0.79952 -0.84108,2.0551 0.32593,0.66425 0.74738,1.31137 0.93656,1.43804 0.18918,0.12667 0.30941,0.34608 0.26718,0.48758 -0.14276,0.47838 1.20133,3.61108 1.54934,3.61108 0.18992,0 0.30451,0.12705 0.25465,0.28233 -0.14056,0.43778 1.24667,3.85842 1.56477,3.85842 0.15541,0 0.28256,0.24854 0.28256,0.5523 0,0.82458 1.31752,3.58845 1.71059,3.58845 0.18782,0 0.24911,0.14946 0.13622,0.33212 -0.11289,0.18267 1.12818,3.27411 2.75793,6.86989 43.3029,95.54004 107.07316,236.81683 107.46681,238.08225 0.30048,0.9659 -1.34796,2.57296 -6.74852,6.57915 -6.78202,5.03096 -21.5929,13.72586 -29.17437,17.12716 -20.25175,9.08558 -49.63222,16.77291 -76.2114,19.94052 -2.89852,0.34544 -5.52413,0.71672 -5.83469,0.82507 -0.31056,0.10835 -1.19559,0.16171 -1.96675,0.11858 -0.77115,-0.0431 -1.59341,0.0398 -1.82723,0.18432 -0.23382,0.1445 -1.21213,0.30272 -2.174,0.35158 -0.96188,0.0489 -2.93463,0.18299 -4.38389,0.29806 -1.44927,0.11507 -3.82079,0.27936 -5.27005,0.36508 -4.04249,0.23913 -38.17112,0.6097 -40.08999,0.4353 z m 36.90472,-3.74295 c 4.85746,-0.31935 11.20327,-0.82943 14.10179,-1.13352 2.89853,-0.30408 6.20172,-0.63953 7.34042,-0.74545 3.07906,-0.28639 17.10932,-2.38522 20.13911,-3.01267 1.44926,-0.30013 3.38566,-0.63625 4.30311,-0.74693 0.91745,-0.11068 1.8647,-0.36441 2.10501,-0.56384 0.24031,-0.19944 0.52061,-0.27892 0.6229,-0.17663 0.18578,0.18578 8.2753,-1.49254 9.34376,-1.93853 0.31056,-0.12964 0.90344,-0.28309 1.31751,-0.34101 3.36264,-0.47035 17.69061,-4.69786 25.36895,-7.48518 7.45277,-2.70544 15.85034,-6.24848 15.85034,-6.68747 0,-0.19126 0.13859,-0.26211 0.30797,-0.15742 0.61843,0.38221 17.00789,-8.07273 17.00789,-8.77397 0,-0.15445 0.21174,-0.28162 0.47054,-0.28258 0.56843,-0.002 6.78723,-3.93551 11.19885,-7.08327 1.94322,-1.38652 3.24326,-2.58392 3.31069,-3.0493 0.18262,-1.26043 -7.56707,-19.72927 -8.27858,-19.72927 -0.19063,0 -0.25553,-0.14734 -0.14423,-0.32742 0.11129,-0.18009 -2.35378,-5.98184 -5.47796,-12.89279 -14.50111,-32.07774 -72.31553,-159.80774 -76.7361,-169.53388 -2.728,-6.00213 -5.07346,-10.99926 -5.21213,-11.10474 -0.13868,-0.10547 -0.295,-0.45809 -0.34738,-0.7836 -0.1151,-0.71524 -4.61106,-10.62261 -4.94158,-10.88934 -0.12827,-0.10352 -0.28571,-0.44231 -0.34987,-0.75286 -0.12506,-0.60539 -4.4886,-10.30915 -5.96569,-13.26667 -0.49046,-0.98202 -0.8872,-1.87249 -0.88165,-1.97882 0.006,-0.10633 -0.44788,-1.0815 -1.00762,-2.16704 -0.55973,-1.08554 -1.05085,-2.14311 -1.09137,-2.35014 -0.0405,-0.20704 -1.21031,-2.74796 -2.59952,-5.64648 -1.38922,-2.89853 -2.7821,-5.90528 -3.0953,-6.68167 -0.31319,-0.77639 -0.79066,-1.41162 -1.06105,-1.41162 -0.58338,0 -6.68317,2.28186 -6.95528,2.60188 -0.10352,0.12175 -0.52544,0.2805 -0.9376,0.35279 -0.90797,0.15923 -7.45546,2.73851 -7.72033,3.0413 -0.10352,0.11834 -0.35761,0.21516 -0.56465,0.21516 -0.81635,0 -8.09328,2.93938 -8.09328,3.26913 0,0.19327 -0.14012,0.2648 -0.31138,0.15896 -0.17126,-0.10584 -2.50043,0.56158 -5.17594,1.48316 -2.6755,0.92158 -5.40545,1.67575 -6.06654,1.67595 -1.69,5e-4 -6.26332,-1.58353 -21.31645,-7.38326 -7.20919,-2.77758 -14.09901,-5.28621 -14.27372,-5.17823 -0.17471,0.10797 -0.29297,-0.17036 -0.37463,-0.41547 -0.32766,-0.98297 -0.48127,0.90056 -3.31214,6.71485 -6.14378,12.61862 -8.73422,18.30542 -8.34239,18.31405 0.14388,0.003 0.0711,0.13021 -0.16164,0.28232 -0.41969,0.27424 -6.78923,14.06143 -6.99712,15.14562 -0.0596,0.31056 -0.21892,0.64934 -0.35415,0.75286 -0.50113,0.38361 -7.06617,15.17506 -6.8736,15.48666 0.10996,0.17791 0.0418,0.32348 -0.15136,0.32348 -0.19321,0 -1.20453,1.90569 -2.24737,4.23486 -1.04284,2.32917 -9.72378,21.51308 -19.29098,42.6309 -9.5672,21.11783 -17.41673,38.65014 -17.44341,38.96069 -0.0267,0.31056 -0.16922,0.65543 -0.31676,0.76638 -0.49181,0.36987 -7.06796,15.12248 -6.87801,15.42981 0.10283,0.16638 0.0237,0.35933 -0.17591,0.42877 -0.4791,0.1667 -7.20247,15.0154 -6.96952,15.39233 0.0991,0.16035 0.0191,0.34836 -0.17782,0.41781 -0.49942,0.17613 -7.19514,15.03514 -6.95221,15.4282 0.10876,0.17599 0.0521,0.31998 -0.12589,0.31998 -0.4394,0 -2.04362,3.35583 -1.79586,3.75672 0.10868,0.17585 0.0404,0.37654 -0.1517,0.44598 -0.37314,0.13488 -6.72168,13.89148 -6.89355,14.93758 -0.0562,0.34231 -0.21255,0.70709 -0.34735,0.8106 -0.46994,0.36089 -5.19445,11.01871 -5.01395,11.31076 0.10004,0.16188 0.0191,0.35114 -0.17993,0.42059 -0.19901,0.0694 -3.16486,6.35789 -6.59079,13.97434 -7.41653,16.48827 -7.35109,16.33459 -7.07349,16.61219 0.12041,0.12041 0.0344,0.21892 -0.19106,0.21892 -0.38333,0 -1.25431,2.04035 -1.18721,2.78115 0.0167,0.18389 -0.11467,0.43798 -0.29185,0.56465 -0.17717,0.12667 -0.53865,0.72214 -0.80327,1.32327 -0.46413,1.05433 -0.41569,1.15442 1.37001,2.83092 3.6061,3.38559 19.57169,13.52428 20.44601,12.98392 0.1789,-0.11056 0.32527,-0.0389 0.32527,0.15918 0,0.75246 18.87404,9.33969 19.57531,8.90628 0.1712,-0.10581 0.36809,-0.04 0.43753,0.14614 0.14231,0.38155 8.72025,3.50573 14.43067,5.2558 6.97446,2.13747 13.11812,3.81542 13.30082,3.63273 0.0998,-0.0998 0.41288,0.0106 0.69573,0.24535 0.28285,0.23474 0.62163,0.31944 0.75286,0.18821 0.13123,-0.13123 0.42357,-0.0902 0.64966,0.0911 0.39526,0.31699 8.09034,2.20201 10.01587,2.45355 0.51441,0.0672 1.18938,0.21908 1.49994,0.33752 1.06207,0.40507 6.5168,1.39795 6.69593,1.21881 0.0984,-0.0983 0.47773,-0.0189 0.84306,0.17666 0.36532,0.19552 1.44066,0.43152 2.38964,0.52445 0.94898,0.0929 1.86595,0.25581 2.03771,0.36197 0.17176,0.10615 1.14922,0.2922 2.17215,0.41344 1.02292,0.12124 4.65486,0.6342 8.07098,1.13991 7.15004,1.05847 19.63991,2.33139 27.29131,2.78142 9.32738,0.5486 30.99932,0.46246 40.48082,-0.1609 z"
       id="path8"
       transform="scale(0.26458333)"
       sodipodi:nodetypes="cssssssssssssssssssscsssssssssssssssssssssssssscssssscssssssssssssssssssssssssscssssssssssccssssssssssssssssssssssssscssssssssssssssscscssssssssssssssssssssssssssssssssssssssssssssssss" /><path
       style="fill:#666666;stroke-width:1.42273"
       d="m 128.91343,214.63551 c -2.28537,-0.66666 -4.68538,-1.54787 -5.33337,-1.95825 -1.60637,-1.01735 -25.786254,-22.81442 -25.55973,-23.04094 0.293023,-0.29302 5.5125,3.46068 8.3576,6.01056 8.34959,7.48319 15.64962,12.82134 24.58807,17.98002 1.88109,1.08564 3.42016,2.03754 3.42016,2.11532 0,0.34564 -1.61011,0.02 -5.47273,-1.10671 z"
       id="path9"
       transform="scale(0.26458333)" /><path
       style="fill:#666666;stroke-width:1.42273"
       d="m 441.58589,215.73719 c 0.0863,-0.0805 1.6814,-1.0389 3.54474,-2.12967 7.95579,-4.65719 17.18056,-11.41045 24.09163,-17.63697 3.27101,-2.94701 7.95904,-6.32042 8.30404,-5.97542 0.28844,0.28844 -24.02608,22.13555 -25.55341,22.96027 -1.54493,0.83424 -11.01839,3.37137 -10.387,2.78179 z"
       id="path10"
       transform="scale(0.26458333)" /><path
       style="fill:#666666;stroke-width:1.42273"
       d="m 260.49082,231.08168 c -0.93167,-0.0742 -4.40425,-0.38895 -7.71685,-0.6994 -3.3126,-0.31045 -9.15671,-0.82398 -12.9869,-1.14117 -13.38767,-1.10869 -32.576,-3.23133 -32.9323,-3.64302 -0.72859,-0.84184 -3.57549,-5.70527 -3.42676,-5.854 0.11046,-0.11046 3.46635,0.1609 7.45753,0.60302 12.7896,1.41675 21.39948,2.13093 42.45307,3.52144 9.58743,0.63322 54.97938,0.62395 68.13416,-0.0139 13.54695,-0.65687 36.66894,-2.56706 49.03025,-4.05057 1.20864,-0.14505 2.15228,-0.1122 2.13685,0.0744 -0.0152,0.18379 -0.73529,1.50778 -1.60023,2.9422 -1.19854,1.98767 -1.84115,2.68034 -2.70151,2.91198 -1.92475,0.51819 -16.1917,2.1071 -33.69024,3.75207 l -16.75122,1.57471 -27.85595,0.0786 c -15.32078,0.0432 -28.61823,0.0179 -29.5499,-0.0563 z"
       id="path11"
       transform="scale(0.26458333)" /><path
       style="fill:#666666;stroke-width:1.42273"
       d="m 164.68892,216.23822 c -5.59001,-1.62921 -12.95866,-3.91411 -16.37478,-5.07755 -6.93034,-2.36029 -14.6742,-5.50564 -14.05943,-5.71056 0.22038,-0.0735 2.83868,0.55747 5.81844,1.40207 6.45864,1.83067 22.18784,5.70448 26.68615,6.5723 4.95475,0.95587 5.15479,1.08398 8.39493,5.37652 0.48896,0.64777 0.87389,0.74203 -10.46531,-2.56278 z"
       id="path12"
       transform="scale(0.26458333)" /><path
       style="fill:#666666;stroke-width:1.42273"
       d="m 185.01658,221.51397 c -2.39011,-0.63598 -2.85785,-0.9309 -5.03895,-3.17719 -1.32235,-1.36188 -2.33887,-2.54025 -2.25894,-2.61861 0.0799,-0.0784 2.14168,0.22326 4.58163,0.67026 l 4.43629,0.81273 1.2929,2.25859 c 0.7111,1.24223 1.29803,2.38564 1.3043,2.54092 0.0178,0.44162 -1.45062,0.27607 -4.31723,-0.4867 z"
       id="path13"
       transform="scale(0.26458333)" /><path
       style="fill:#666666;stroke-width:1.42273"
       d="m 197.45096,224.11626 c -0.8213,-0.19234 -1.88832,-0.72084 -2.37117,-1.17445 -0.96328,-0.90496 -3.62905,-4.77956 -3.41901,-4.96943 0.17349,-0.15682 6.3059,0.74822 6.45436,0.95256 0.74525,1.02576 3.27588,5.16681 3.27588,5.36056 0,0.34838 -2.11826,0.25739 -3.94006,-0.16924 z"
       id="path14"
       transform="scale(0.26458333)" /><path
       style="fill:#666666;stroke-width:1.42273"
       d="m 374.54966,224.38902 c 0,-0.1402 0.79624,-1.50375 1.76942,-3.03012 l 1.76941,-2.77523 2.95763,-0.26181 c 1.62669,-0.144 3.01636,-0.20097 3.08814,-0.12661 0.0718,0.0744 -0.60713,1.26983 -1.5087,2.65658 -1.37449,2.11418 -1.87649,2.58527 -3.10834,2.91698 -2.086,0.5617 -4.96756,0.92147 -4.96756,0.62021 z"
       id="path15"
       transform="scale(0.26458333)" /><path
       style="fill:#666666;stroke-width:1.42273"
       d="m 386.59548,222.13096 c 0,-0.5952 2.40905,-4.41919 2.97475,-4.72194 0.7437,-0.39802 8.42463,-1.92085 8.63374,-1.71174 0.0782,0.0782 -0.76536,1.23872 -1.87469,2.57882 -1.90303,2.29895 -2.15514,2.46881 -4.46376,3.00763 -3.63418,0.8482 -5.27004,1.11119 -5.27004,0.84723 z"
       id="path16"
       transform="scale(0.26458333)" /><path
       style="fill:#666666;stroke-width:1.42273"
       d="m 401.16681,218.3053 c 2.7087,-3.77237 2.74856,-3.79398 9.70852,-5.26319 7.68873,-1.62305 16.33744,-3.76117 24.37841,-6.0268 6.49814,-1.83092 7.56641,-2.00887 5.49786,-0.91586 -4.56125,2.41016 -20.15961,7.65151 -34.14782,11.47433 -2.76343,0.75521 -5.29563,1.47719 -5.6271,1.60439 -0.47009,0.18038 -0.42825,-0.0117 0.19013,-0.87287 z"
       id="path17"
       transform="scale(0.26458333)" /><path
       style="fill:#cccccc;stroke-width:1.42273"
       d="m 173.15864,218.51816 c -0.5176,-0.17463 -5.59943,-1.70185 -11.29296,-3.39382 -10.22604,-3.03892 -20.04627,-6.35327 -23.33877,-7.87688 l -1.69394,-0.78388 1.50572,0.2476 c 0.82815,0.13618 1.84452,0.26532 2.25859,0.28696 0.41408,0.0216 0.84049,0.15496 0.94758,0.29625 0.31328,0.41332 15.43491,4.11175 15.82523,3.87052 0.19517,-0.12062 0.35484,-0.0631 0.35484,0.12788 0,0.19095 2.58327,0.89547 5.74059,1.56559 6.69617,1.42123 8.39048,2.12151 10.0106,4.13753 1.61061,2.00419 1.57776,2.16168 -0.31748,1.52225 z"
       id="path18"
       transform="scale(0.26458333)" /><path
       style="fill:#cccccc;stroke-width:1.42273"
       d="m 184.63981,221.14662 c -1.81021,-0.57519 -2.70697,-1.17219 -4.51718,-3.00726 l -2.2586,-2.2896 1.69395,0.29352 c 0.93167,0.16144 2.24447,0.2961 2.91734,0.29927 0.67288,0.003 1.22341,0.11114 1.22341,0.23996 0,0.12882 0.67557,0.34224 1.50128,0.47428 1.34171,0.21454 1.61155,0.44972 2.53876,2.21259 0.57061,1.08489 1.09491,2.09958 1.16511,2.25485 0.22703,0.50219 -1.94673,0.25871 -4.26407,-0.47761 z"
       id="path19"
       transform="scale(0.26458333)" /><path
       style="fill:#cccccc;stroke-width:1.42273"
       d="m 196.68563,223.63376 c -0.62112,-0.27605 -1.48632,-0.90465 -1.92267,-1.39688 -1.03121,-1.16326 -2.79769,-3.82873 -2.64115,-3.98527 0.0669,-0.0669 1.40505,0.0693 2.97367,0.30255 l 2.85203,0.42419 1.40388,2.31107 c 0.77214,1.2711 1.47223,2.43813 1.55576,2.5934 0.25659,0.47699 -3.02333,0.28348 -4.22152,-0.24906 z"
       id="path20"
       transform="scale(0.26458333)" /><path
       style="fill:#cccccc;stroke-width:1.42273"
       d="m 375.67746,222.81331 c 1.36139,-2.25921 2.37204,-3.70196 2.8066,-4.00655 0.46481,-0.3258 5.09996,-0.38901 5.09996,-0.0696 0,0.12019 -0.59062,1.10834 -1.31249,2.19588 -1.49233,2.2483 -2.35792,2.74954 -5.35685,3.102 l -2.12388,0.24962 z"
       id="path21"
       transform="scale(0.26458333)" /><path
       style="fill:#cccccc;stroke-width:1.42273"
       d="m 386.97191,221.743 c 0,-0.13697 0.57412,-1.14653 1.27582,-2.24347 l 1.27583,-1.99443 4.01999,-0.8477 c 2.21099,-0.46623 4.09046,-0.77722 4.17659,-0.69109 0.0861,0.0861 -0.69821,1.11568 -1.74298,2.28789 -1.47189,1.65142 -2.31387,2.25431 -3.7396,2.67771 -2.30598,0.6848 -5.26565,1.14069 -5.26565,0.81109 z"
       id="path22"
       transform="scale(0.26458333)" /><path
       style="fill:#cccccc;stroke-width:1.42273"
       d="m 401.27632,218.69232 c 0,-0.56935 2.41094,-3.24455 3.37188,-3.74147 0.56764,-0.29354 4.82658,-1.38698 9.4643,-2.42986 4.63772,-1.04288 11.9048,-2.83388 16.14907,-3.97999 9.66393,-2.60961 10.63169,-2.78161 7.34042,-1.30456 -3.67059,1.64728 -17.66508,6.30481 -27.10309,9.02023 -4.34779,1.25091 -8.20151,2.3677 -8.56382,2.48177 -0.36232,0.11407 -0.65876,0.0933 -0.65876,-0.0461 z"
       id="path23"
       transform="scale(0.26458333)" /><path
       style="fill:#cccccc;stroke-width:1.42273"
       d="m 303.68201,132.34835 c -0.36307,-2.70689 -3.28034,-7.18477 -4.68077,-7.18477 -0.26995,0 -0.49081,-0.16939 -0.49081,-0.37643 0,-0.20704 0.1564,-0.37643 0.34755,-0.37643 0.71216,0 2.72372,-2.0287 3.49954,-3.52935 0.44144,-0.85387 1.01248,-2.39945 1.26899,-3.43464 0.2565,-1.03519 0.48078,-1.59164 0.49839,-1.23656 0.1176,2.37159 2.59043,6.87655 4.26722,7.77394 l 0.92861,0.49698 -1.79774,1.79774 c -1.4622,1.4622 -1.96904,2.34104 -2.71544,4.70843 l -0.91769,2.91068 z"
       id="path24"
       transform="scale(0.26458333)" /><path
       style="fill:#e6e6e6;stroke-width:0.711367"
       d="m 316.86148,453.74874 c -0.31055,-0.0426 -4.50306,-0.78898 -9.31668,-1.65854 -4.81363,-0.86957 -16.1207,-2.89988 -25.12683,-4.51182 -16.31162,-2.91948 -20.02221,-3.58929 -33.78475,-6.09857 -3.98548,-0.72665 -9.02496,-1.62539 -11.19885,-1.99719 -4.65162,-0.79556 -11.15271,-2.08317 -11.84309,-2.34565 -0.26678,-0.10143 -0.48373,-0.29239 -0.48211,-0.42435 0.0151,-1.2267 1.71006,-11.33017 5.64498,-33.64825 1.23198,-6.98751 2.92531,-16.64299 3.76297,-21.45661 1.89203,-10.87265 2.44762,-13.94419 3.40451,-18.82159 1.17858,-6.00739 1.46383,-7.11885 1.85924,-7.24435 0.34487,-0.10946 2.58698,0.17908 6.59376,0.84854 1.19046,0.1989 10.59185,1.71603 20.89196,3.37139 62.99449,10.12403 64.53538,10.37501 66.67549,10.85998 1.17944,0.26727 1.27044,0.32389 1.27025,0.7904 -5.8e-4,1.45971 -1.50436,9.2614 -8.16888,42.38055 -7.25905,36.07362 -8.02805,39.78592 -8.2748,39.94594 -0.21948,0.14234 -0.91718,0.14604 -1.90717,0.0101 z m -0.86238,-3.42867 c 0.84883,-0.53727 0.74972,-8.20911 -0.1897,-14.68331 -2.29334,-15.80509 -8.49935,-29.29738 -19.57539,-42.55827 -2.54306,-3.04471 -7.8721,-8.47149 -10.91805,-11.1183 -12.1567,-10.56371 -25.81336,-17.46117 -40.59365,-20.50233 -0.97736,-0.2011 -2.21645,-0.36564 -2.75355,-0.36564 h -0.97654 l -0.43399,2.58797 c -1.51917,9.05902 -6.08224,34.92131 -9.92097,56.2295 -1.13646,6.30828 -2.33136,13.55803 -2.33136,14.14486 0,0.74016 0.31371,0.87767 3.34254,1.46511 2.47783,0.48057 30.1134,5.47152 53.21634,9.6108 12.053,2.1595 24.5235,4.45664 27.57363,5.07923 1.44331,0.2946 3.18437,0.34858 3.56069,0.11038 z"
       id="path26"
       transform="scale(0.26458333)" /><path
       style="fill:#e6e6e6;stroke-width:0.251506"
       d="m 311.66057,461.99359 c -0.1098,-0.029 -0.26155,-0.086 -0.33722,-0.12666 -0.20908,-0.11237 -1.80136,-0.42932 -4.94033,-0.98339 -9.60766,-1.69589 -12.75621,-2.35213 -13.28647,-2.76923 -0.22926,-0.18034 -0.431,-0.61125 -0.43294,-0.92476 -0.002,-0.31617 0.27973,-0.86493 0.54442,-1.06062 0.38434,-0.28416 1.00804,-0.26095 3.77951,0.1406 6.354,0.92064 16.65328,2.99246 17.40905,3.50203 0.16367,0.11035 0.35829,0.61875 0.35829,0.93592 0,0.59866 -0.40409,0.99195 -1.2068,1.17452 -0.54936,0.12495 -1.60138,0.18715 -1.88751,0.11159 z"
       id="path27"
       transform="scale(0.26458333)" /><path
       style="fill:#e6e6e6;stroke-width:0.251506"
       d="m 318.26497,463.08717 c -0.82934,-0.29596 -1.26782,-1.24583 -0.92379,-2.00121 0.15109,-0.33176 0.57753,-0.72297 0.90635,-0.83149 0.77353,-0.25529 1.66565,0.39324 1.75011,1.27226 0.0568,0.59149 -0.31217,1.24749 -0.85851,1.52621 -0.29366,0.14981 -0.5249,0.15887 -0.87416,0.0342 z"
       id="path28"
       transform="scale(0.26458333)" /></g></svg>
